<?xml version="1.0" encoding="UTF-8" standalone="no"?>
<!-- Uploaded to: SVG Repo, www.svgrepo.com, Generator: SVG Repo Mixer Tools -->

<svg
   height="800"
   width="800"
   version="1.1"
   id="Capa_1"
   viewBox="0 0 27.809 27.809"
   xml:space="preserve"
   xmlns="http://www.w3.org/2000/svg"
   xmlns:svg="http://www.w3.org/2000/svg"><defs
   id="defs1" />
<g
   id="g1"
   style="fill:#ffe680">
	<path
   style="fill:#ffe680"
   d="M 23.76,0.106 C 23.693,0.031 23.582,-0.01 23.484,0.002 l -4.367,0.516 c -0.116,0.016 -0.217,0.095 -0.258,0.204 -0.045,0.109 -0.02,0.241 0.07,0.342 l 0.891,0.888 c 0.053,0.05 0.123,0.075 0.197,0.067 l 0.699,-0.082 -3.395,3.394 c -0.99,-0.723 -2.156,-1.104 -3.385,-1.104 -3.176,0 -5.76,2.577 -5.77,5.75 -2.483,0.697 -4.202,2.95 -4.202,5.544 0,2.845 2.075,5.255 4.863,5.692 v 2.155 H 6.433 c -0.133,0 -0.24,0.105 -0.24,0.236 v 1.333 c 0,0.132 0.107,0.239 0.24,0.239 h 2.395 v 2.396 c 0,0.133 0.105,0.237 0.238,0.237 h 1.335 c 0.13,0 0.237,-0.104 0.237,-0.237 v -2.396 h 2.396 c 0.132,0 0.239,-0.107 0.239,-0.239 v -1.333 c 0,-0.131 -0.107,-0.236 -0.239,-0.236 h -2.396 v -2.155 c 2.782,-0.438 4.854,-2.838 4.863,-5.676 2.486,-0.697 4.204,-2.951 4.204,-5.546 0,-1.253 -0.394,-2.438 -1.138,-3.436 L 21.89,3.229 21.823,3.822 c -0.008,0.071 0.018,0.145 0.067,0.195 l 0.89,0.893 c 0.062,0.061 0.143,0.093 0.227,0.093 0.034,0 0.068,-0.006 0.104,-0.019 0.119,-0.042 0.201,-0.145 0.215,-0.268 L 23.844,0.352 C 23.851,0.266 23.821,0.175 23.76,0.106 Z M 9.734,19.928 c -2.429,0 -4.405,-1.978 -4.405,-4.406 0,-1.881 1.224,-3.558 3.006,-4.155 0.626,2.562 2.94,4.396 5.603,4.396 0.064,0 0.131,-0.004 0.196,-0.006 -0.122,2.32 -2.05,4.171 -4.4,4.171 z m -0.056,-8.81 c 0.02,-10e-4 0.038,-10e-4 0.056,-10e-4 2.002,0 3.751,1.362 4.257,3.276 -0.019,0.002 -0.037,0.003 -0.054,0.003 -2.003,10e-4 -3.753,-1.363 -4.259,-3.278 z m 5.656,3.031 C 14.711,11.587 12.396,9.753 9.733,9.753 c -0.067,0 -0.132,0.002 -0.197,0.005 0.122,-2.319 2.05,-4.172 4.4,-4.172 2.428,0 4.407,1.978 4.407,4.407 0.001,1.881 -1.227,3.557 -3.009,4.156 z"
   id="path1" />
</g>
</svg>
